PathFileType	4	(X/Y/Z)	Patient4_TMGait_0pt4_01_right_09.trc.trc
DataRate	CameraRate	NumFrames	NumMarkers	Units	OrigDataRate	OrigDataStartFrame	OrigNumFrames
73.684210526316	73.684210526316	4	33	mm	73.684210526316	36	       141
Frame#	Time	Sacral			L.Shoulder			Chest			R.Shoulder			Neck			R.ASIS			L.ASIS			R.Thigh.Superior			R.Thigh.Lateral			R.Thigh.Inferior			R.Patella			L.Thigh.Superior			L.Thigh.Lateral			L.Thigh.Inferior			L.Patella			L.Shank.Superior			L.Shank.Lateral			L.Shank.Inferior			R.Shank.Superior			R.Shank.Lateral			R.Shank.Inferior			R.Heel			R.Midfoot.Superior			R.Midfoot.Lateral			R.Toe			L.Heel			L.Midfoot.Lateral			L.Midfoot.Superior			L.Toe			L.Elbow			L.Wrist			R.Elbow			R.Wrist			
		X1	Y1	Z1	X2	Y2	Z2	X3	Y3	Z3	X4	Y4	Z4	X5	Y5	Z5	X6	Y6	Z6	X7	Y7	Z7	X8	Y8	Z8	X9	Y9	Z9	X10	Y10	Z10	X11	Y11	Z11	X12	Y12	Z12	X13	Y13	Z13	X14	Y14	Z14	X15	Y15	Z15	X16	Y16	Z16	X17	Y17	Z17	X18	Y18	Z18	X19	Y19	Z19	X20	Y20	Z20	X21	Y21	Z21	X22	Y22	Z22	X23	Y23	Z23	X24	Y24	Z24	X25	Y25	Z25	X26	Y26	Z26	X27	Y27	Z27	X28	Y28	Z28	X29	Y29	Z29	X30	Y30	Z30	X31	Y31	Z31	X32	Y32	Z32	X33	Y33	Z33	

36	11.805000000000	797.585305403280	1001.097299720076	500.842758804000	984.292530780802	1435.938322820723	333.757225012854	1065.226314220083	1373.273581277588	508.161588058914	955.831501104640	1443.019343682418	668.860772962287	943.854898307712	1497.809548243189	487.927428252007	1019.531377818672	945.856903059795	638.075439633781	1025.821848193770	967.937988475933	363.849993169559	1074.362918616837	747.582446144343	603.029338190414	996.301424566159	633.749348602362	659.799869785891	1078.458099444438	586.638646536336	580.769740292352	1082.469681960782	500.160381467673	585.292612881356	1057.864451729060	743.836996046789	384.212907392019	966.956989586991	632.845675275096	313.247596814176	1047.418656366397	546.281528688905	372.980853129464	1039.489564923014	464.616363438798	369.597457130970	980.169846733546	404.391547149824	363.071937447315	848.909718441153	338.803711071677	314.276706864849	856.154012870305	210.218649092518	373.086285228100	1060.123828537421	409.583154977567	592.565411801829	993.913041844468	302.019845573262	653.241947418123	1042.341719307355	209.703140330603	590.642600453345	916.960221862197	42.135514099961	559.717239346348	1086.912145963798	98.344600275573	595.563663018754	1000.239708648887	36.993632703333	634.777451473642	1207.710792633920	48.598845066815	623.014740757908	681.483788464871	105.655688546258	412.053831676540	748.946993764825	73.019642582615	334.467997425700	846.871753441643	109.466783222462	355.866931585609	950.627556064350	34.806476953723	334.097348232376	1039.041846637464	1093.877544121300	203.668520002876	1206.599504243919	892.040835947271	192.556243452965	893.131599967142	1100.128444321083	787.092733185341	1014.946366698443	869.860485608075	798.639537600092	
37	11.818571428571	797.376968808819	1001.264536896736	505.336574092804	981.543840697004	1436.545534743397	336.732048750980	1064.676767026768	1373.781276771467	510.059171579346	957.138783353219	1443.090012954503	672.148606255867	942.870225291959	1498.105753778895	491.372528201647	1020.666132403491	946.262171583780	640.170778905472	1024.502337599357	968.463223356974	366.021282409672	1073.241052402470	746.850801827974	605.513579632591	993.929412969508	633.711466741654	662.170594272931	1075.384855286561	585.976469846751	582.955599512857	1078.558640443371	499.695295902428	587.114698357302	1062.122461093291	746.373496650487	386.723658116075	975.785706134597	633.250029791107	314.706467810085	1059.196776079462	548.392283690673	374.148683448969	1052.444477581335	465.427342875448	369.814729906927	990.939924078868	405.270429013048	363.464950428675	857.387268651432	344.542946933559	314.588073674029	860.340824057189	215.610929105574	372.622665875619	1055.995044299083	409.218595174535	594.150650848510	989.494995704525	301.686238506407	654.453385385691	1037.497493662314	209.457287857985	591.378459265062	911.576698898386	42.124852944631	559.830442089080	1081.599598292196	98.221674719162	595.833641152193	994.841358033978	36.924464687309	634.922864080100	1202.392300920055	48.308312880569	623.135511143788	681.539978932455	119.599317020666	410.899968428388	747.438128550903	82.809817007867	333.721422473131	847.183947757210	113.961897890607	355.094128450481	945.913308104158	33.921655495093	334.317106966160	1031.638674005991	1093.076918973391	207.685547819085	1191.615961386181	885.218679349879	195.559450971293	901.518099383393	1099.893469622381	793.515724600985	1032.557026581855	874.947528554991	804.981075710515	
38	11.832142857143	796.975188090918	1001.348228140914	509.734610825572	978.681783151023	1436.951000852363	339.577218248196	1064.128297850794	1374.079929464991	511.754460156718	958.613963459029	1443.000170842214	675.301118655665	941.945909406329	1498.255635947801	494.693700460275	1021.616485142964	946.517834413667	642.148773301225	1022.969390273429	968.762380990816	368.058741089153	1071.987273222763	746.109213597867	607.978656373227	991.568765729641	633.625269828809	664.540535878428	1072.348797043987	585.319612679169	585.169402828664	1074.708523131864	499.210224966191	589.040343159102	1066.275173372434	749.089142798455	389.123520505123	984.653845403291	633.961790189367	316.032994415340	1070.852513464845	550.974492396802	375.288804099266	1065.418845218416	466.830518021909	370.222846135033	1002.002508405998	406.576073251296	363.941641134879	866.445507565525	350.548731275004	314.822985816476	865.158298223955	221.455182331069	372.288166372582	1051.917092723100	408.815251974008	595.790404316990	985.089160491396	301.312572949758	655.734078865649	1032.648001804774	209.182812929928	592.154521810288	906.132127947282	42.123134842932	559.945417302807	1076.257944899911	98.072170527349	596.100096758625	989.389428324831	36.851909062585	635.059010190796	1197.038299824532	47.927842426818	623.243558134340	682.550138277641	133.968411763720	409.806747657073	746.847442644155	93.353359844714	332.971602906228	848.218642537859	119.155964374273	354.481744562350	941.905928621044	33.205531269006	334.466441685369	1023.761639417890	1092.117457941083	211.507823051736	1176.095582156649	878.626252129672	198.790488728795	910.155687878762	1099.725447915924	799.840516503030	1050.257567747047	880.488223089420	811.009572489523	
39	11.845714285714	796.390130419347	1001.370354464488	513.986998521651	975.755368058314	1437.180136723807	342.278492996371	1063.582830262371	1374.196023159351	513.251965109384	960.227348538663	1442.787682862925	678.291635761782	941.100115588891	1498.295092769023	497.860010495131	1022.371270862521	946.647450014623	644.015858675300	1021.225834771499	968.860788840244	369.968744543543	1070.645408827491	745.398538518866	610.368388798072	989.296828263437	633.511300235828	666.871996721563	1069.424940181397	584.688750343079	587.362743838551	1070.989626696565	498.713875795176	591.024688081283	1070.191687372209	751.996920386266	391.390602074773	993.321930387566	635.038301601226	317.224175735325	1082.114564854897	554.054123684939	376.372687013611	1078.158520539745	468.855432588803	370.759380971078	1013.125905880553	408.336013274453	364.461992781543	875.852826168389	356.684125801261	315.022383470261	870.566473317845	227.566533774534	372.096463262890	1047.945228079022	408.385536405472	597.452578104214	980.735879590613	300.925471949947	657.064285705279	1027.827550227544	208.894049707973	592.964510638458	900.644961939207	42.132114931929	560.077329766867	1070.902652778652	97.912721565398	596.369220013250	983.905052822587	36.780628258640	635.197940999960	1191.662887462727	47.494998888211	623.347356910293	684.607105357497	148.132407759785	408.880174991152	747.342287346771	104.203815179310	332.273648437185	850.095415549460	124.886742949619	354.022327679464	938.977198641106	32.800170699480	334.442266291056	1015.404091257978	1091.024712966506	215.159340857621	1160.092427362417	872.312164904500	202.240297238250	919.039497723460	1099.637620990714	805.975730029976	1067.971657226382	886.461639594030	816.659836839293	
